<svg xmlns="http://www.w3.org/2000/svg" viewBox="0 0 50 50" fill="#5b5bd5"><path d="M25 2a13.02 13.02 0 0 0-13 13c0 5.077 3.105 11.347 6.14 16.492s6.066 9.115 6.066 9.115l.795 1.04.795-1.04s3.033-3.97 6.066-9.115S38 20.077 38 15A13.02 13.02 0 0 0 25 2zm0 2c6.086 0 11 4.914 11 11 0 4.217-2.895 10.446-5.86 15.477-2.57 4.357-4.496 6.862-5.14 7.72-.643-.86-2.57-3.364-5.14-7.72C16.895 25.446 14 19.217 14 15c0-6.086 4.914-11 11-11zm0 6a5.02 5.02 0 0 0-5 5 5.02 5.02 0 0 0 5 5 5.02 5.02 0 0 0 5-5 5.02 5.02 0 0 0-5-5zm0 2c1.67 0 3 1.33 3 3s-1.33 3-3 3-3-1.33-3-3 1.33-3 3-3zM7.295 32L1.58 48h46.84l-5.715-16h-7.652l-1.174 2h7.416l4.285 12H4.42l4.285-12h7.416l-1.174-2H7.295z"/></svg>