<svg xmlns="http://www.w3.org/2000/svg" viewBox="0 0 64 64" fill="#5b5bd5"><path d="M28.186 2.12a.99.99 0 0 0-.713.28l-2.877 2.78a1 1 0 0 0-.023 1.414c.196.203.457.305.72.305a1 1 0 0 0 .695-.281l2.877-2.777a1 1 0 0 0 .023-1.414c-.2-.198-.445-.3-.7-.305zM15.73 6c-2.195 0-4.137.705-5.326 1.93l-.115.117C8.86 9.5 5.5 12.933 5.5 19.664c0 5.777 3.432 11.36 5.477 14.174l.076.105c.045.06.128.182.25.36 6.5 9.466 14.518 16.535 22.602 19.904 7.176 2.992 10.972 3.8 13.568 3.8 1.1 0 1.983-.142 2.818-.32 3.728-.808 8.352-3.55 9.58-7.045.998-2.843 1.308-6.036.693-7.117-.406-.717-1.157-1.08-2.195-1.584l-.74-.363c-.076-.038-7.673-3.844-9.076-4.334-1.762-.67-3.323-.192-4.4 1.34l-.555.78c-1.066 1.505-2.073 2.928-2.887 3.8-.523.56-1.413.536-2.06.266l-.418-.172c-1.746-.7-5.378-2.188-9.87-6.2-3.594-3.222-6.173-7.3-7.1-8.898-.387-.67-.225-.912.443-1.7.36-.45.712-.823 1.064-1.2.3-.308.58-.617.875-.96l.133-.154c.6-.688 1.018-1.185 1.455-2.12.735-1.435.05-2.867-.174-3.338-.22-.463-1.763-4.23-2.9-6.98l-1.143-2.783-.002-.002c-1.064-2.564-2.124-2.8-3.727-2.855A25.58 25.58 0 0 0 15.73 6zm19.004 1.55a.99.99 0 0 0-.39.072L28.78 9.87a1 1 0 0 0 .75 1.856l5.564-2.248a1 1 0 0 0-.359-1.928zM16.086 8a34.9 34.9 0 0 1 1.113.043c1.098.045 1.328.055 1.98 1.623l1.14 2.78 2.936 7.082c.338.7.398 1.18.184 1.6-.336.72-.618 1.044-1.176 1.693l-.047.057L16.1 8zm-2.05.182c.012.063.01.13.037.2l6.646 16.14a17.19 17.19 0 0 0-.594.695c-.64.754-1.7 2.015-.598 3.94 1.23 2.093 3.84 6.096 7.506 9.383 4.75 4.253 8.746 5.878 10.45 6.572l.4.164c1.574.657 3.262.364 4.3-.752.575-.623 1.2-1.456 1.877-2.373l14.16 7.08a15.09 15.09 0 0 1-.232.736c-.938 2.67-4.942 5.065-8.113 5.752-2 .427-4.717 1.012-15.195-3.357-7.732-3.223-15.445-10.037-21.72-19.2l-.368-.5c-1.902-2.618-5.094-7.8-5.094-13 0-5.916 2.843-8.822 4.2-10.22l.12-.12c.5-.526 1.284-.917 2.2-1.133zm15.742 7.816a1 1 0 1 0 0 2h4a1 1 0 1 0 0-2h-4zM17.648 30.66a.99.99 0 0 0-.375.13 1 1 0 0 0-.355 1.369c.328.56.915 1.42 1.57 2.303a1 1 0 0 0 .805.404.99.99 0 0 0 .594-.197 1 1 0 0 0 .209-1.398c-.912-1.23-1.343-1.938-1.453-2.125a1 1 0 0 0-.994-.484zm4.412 5.54c-.256-.015-.517.066-.723.25a1 1 0 0 0-.084 1.412c1.156 1.305 2.335 2.5 3.506 3.55 2.748 2.46 5.5 4.412 8.213 5.803a1 1 0 1 0 .917-1.779c-2.55-1.313-5.173-3.17-7.793-5.514-1.114-1-2.24-2.138-3.346-3.385a1 1 0 0 0-.689-.336zm24.895 2.742c.27-.022.573.035.922.168 1.07.375 6.953 3.282 8.86 4.242l.77.38c.547.265 1.228.593 1.305.723.104.283.134 1.332-.1 2.777l-13.457-6.727.55-.775c.348-.493.7-.75 1.16-.787z"/></svg>