<svg xmlns="http://www.w3.org/2000/svg" viewBox="0 0 23 18" fill="#5b5bd5"><path fill-rule="evenodd" d="M19.728 16l-5.353-5.585-1.24 1.292a.93.93 0 0 1-1.352.004l-1.9-1.965a1.03 1.03 0 0 1-.007-1.414.93.93 0 0 1 1.355-.007l1.228 1.288L19.732 2H.958C.43 2 0 1.552 0 1s.43-1 .958-1h20.126C22.144 0 23 .894 23 2v14c0 1.105-.856 2-1.915 2H6.708c-.53 0-.958-.448-.958-1s.43-1 .958-1h13.02zm1.356-1.414l.001-11.173L15.73 9l5.353 5.586zM2.918 5h4.708a1 1 0 1 1 0 2H2.918a1 1 0 1 1 0-2zm1.917 6h2.8a1 1 0 1 1 0 2h-2.8a1 1 0 1 1 0-2z"/></svg>